<mxfile host="app.diagrams.net" modified="2023-04-24T04:19:56.904Z" agent="Mozilla/5.0 (Windows NT 10.0; Win64; x64) AppleWebKit/537.36 (KHTML, like Gecko) Chrome/112.0.0.0 Safari/537.36 Edg/112.0.1722.46" etag="gjCoyFlMO-ctGs7QN-Z9" version="21.2.1" type="github">
  <diagram name="第 1 页" id="5gLxt_VN_PzJS7X0Rymk">
    <mxGraphModel dx="889" dy="569" grid="1" gridSize="10" guides="1" tooltips="1" connect="1" arrows="1" fold="1" page="1" pageScale="1" pageWidth="827" pageHeight="1169" math="0" shadow="0">
      <root>
        <mxCell id="0" />
        <mxCell id="1" parent="0" />
      </root>
    </mxGraphModel>
  </diagram>
</mxfile>
